<svg xmlns="http://www.w3.org/2000/svg" viewBox="0 0 500 500"><g id="freepik--Company--inject-9"><polygon points="160.83 84.62 164.56 89.44 335.42 89.44 339.18 84.62 160.83 84.62" style="fill:#FF6529"></polygon><g style="opacity:0.4"><polygon points="160.83 84.62 164.56 89.44 335.42 89.44 339.18 84.62 160.83 84.62"></polygon></g><rect x="164.21" y="78.41" width="171.25" height="303.58" style="fill:#FF6529"></rect><g style="opacity:0.4"><rect x="164.21" y="78.41" width="171.25" height="303.58" style="fill:#fff"></rect></g><g style="opacity:0.8"><path d="M171.15,85.88a3.11,3.11,0,0,1-3.06,3.57,4,4,0,0,1-3.82-3.57,3.12,3.12,0,0,1,3.07-3.6A4,4,0,0,1,171.15,85.88Z" style="fill:#f0f0f0"></path><path d="M177.46,85.88a3.14,3.14,0,0,1-3.1,3.57,4,4,0,0,1-3.78-3.57,3.14,3.14,0,0,1,3.09-3.6A4,4,0,0,1,177.46,85.88Z" style="fill:#f0f0f0"></path><path d="M183.76,85.88a3.16,3.16,0,0,1-3.12,3.57,3.92,3.92,0,0,1-3.76-3.57,3.17,3.17,0,0,1,3.12-3.6A3.92,3.92,0,0,1,183.76,85.88Z" style="fill:#f0f0f0"></path><path d="M190.06,85.88a3.2,3.2,0,0,1-3.15,3.57,3.89,3.89,0,0,1-3.73-3.57,3.21,3.21,0,0,1,3.16-3.6A3.88,3.88,0,0,1,190.06,85.88Z" style="fill:#f0f0f0"></path><path d="M196.37,85.88a3.23,3.23,0,0,1-3.18,3.57,3.85,3.85,0,0,1-3.7-3.57,3.23,3.23,0,0,1,3.18-3.6A3.84,3.84,0,0,1,196.37,85.88Z" style="fill:#f0f0f0"></path><path d="M202.67,85.88a3.26,3.26,0,0,1-3.21,3.57,3.81,3.81,0,0,1-3.67-3.57,3.26,3.26,0,0,1,3.21-3.6A3.8,3.8,0,0,1,202.67,85.88Z" style="fill:#f0f0f0"></path><path d="M209,85.88a3.29,3.29,0,0,1-3.24,3.57,3.77,3.77,0,0,1-3.64-3.57,3.28,3.28,0,0,1,3.23-3.6A3.78,3.78,0,0,1,209,85.88Z" style="fill:#f0f0f0"></path><path d="M215.28,85.88A3.32,3.32,0,0,1,212,89.45a3.73,3.73,0,0,1-3.61-3.57,3.32,3.32,0,0,1,3.26-3.6A3.74,3.74,0,0,1,215.28,85.88Z" style="fill:#f0f0f0"></path><path d="M221.58,85.88a3.35,3.35,0,0,1-3.29,3.57,3.7,3.7,0,0,1-3.59-3.57,3.35,3.35,0,0,1,3.3-3.6A3.69,3.69,0,0,1,221.58,85.88Z" style="fill:#f0f0f0"></path><path d="M227.89,85.88a3.39,3.39,0,0,1-3.33,3.57A3.65,3.65,0,0,1,221,85.88a3.38,3.38,0,0,1,3.32-3.6A3.66,3.66,0,0,1,227.89,85.88Z" style="fill:#f0f0f0"></path><path d="M234.19,85.88a3.42,3.42,0,0,1-3.35,3.57,3.63,3.63,0,0,1-3.53-3.57,3.41,3.41,0,0,1,3.35-3.6A3.62,3.62,0,0,1,234.19,85.88Z" style="fill:#f0f0f0"></path><path d="M240.49,85.88a3.45,3.45,0,0,1-3.38,3.57,3.6,3.6,0,0,1-3.5-3.57,3.45,3.45,0,0,1,3.38-3.6A3.58,3.58,0,0,1,240.49,85.88Z" style="fill:#f0f0f0"></path><path d="M246.8,85.88a3.48,3.48,0,0,1-3.41,3.57,3.55,3.55,0,0,1-3.47-3.57,3.48,3.48,0,0,1,3.41-3.6A3.56,3.56,0,0,1,246.8,85.88Z" style="fill:#f0f0f0"></path><path d="M253.1,85.88a3.44,3.44,0,1,1-3.44-3.6A3.51,3.51,0,0,1,253.1,85.88Z" style="fill:#f0f0f0"></path><path d="M259.4,85.88a3.54,3.54,0,0,1-3.46,3.57,3.48,3.48,0,0,1-3.41-3.57,3.54,3.54,0,0,1,3.46-3.6A3.48,3.48,0,0,1,259.4,85.88Z" style="fill:#f0f0f0"></path><path d="M265.71,85.88a3.58,3.58,0,0,1-3.5,3.57,3.45,3.45,0,0,1-3.38-3.57,3.58,3.58,0,0,1,3.49-3.6A3.46,3.46,0,0,1,265.71,85.88Z" style="fill:#f0f0f0"></path><path d="M272,85.88a3.62,3.62,0,0,1-3.52,3.57,3.43,3.43,0,0,1-3.36-3.57,3.62,3.62,0,0,1,3.53-3.6A3.42,3.42,0,0,1,272,85.88Z" style="fill:#f0f0f0"></path><path d="M278.32,85.88a3.66,3.66,0,0,1-3.56,3.57,3.38,3.38,0,0,1-3.32-3.57,3.65,3.65,0,0,1,3.55-3.6A3.39,3.39,0,0,1,278.32,85.88Z" style="fill:#f0f0f0"></path><path d="M284.62,85.88A3.7,3.7,0,0,1,281,89.45a3.36,3.36,0,0,1-3.3-3.57,3.69,3.69,0,0,1,3.58-3.6A3.35,3.35,0,0,1,284.62,85.88Z" style="fill:#f0f0f0"></path><path d="M290.92,85.88a3.72,3.72,0,0,1-3.6,3.57A3.33,3.33,0,0,1,284,85.88a3.73,3.73,0,0,1,3.61-3.6A3.32,3.32,0,0,1,290.92,85.88Z" style="fill:#f0f0f0"></path><path d="M297.23,85.88a3.77,3.77,0,0,1-3.64,3.57,3.29,3.29,0,0,1-3.24-3.57,3.76,3.76,0,0,1,3.64-3.6A3.3,3.3,0,0,1,297.23,85.88Z" style="fill:#f0f0f0"></path><path d="M303.53,85.88a3.8,3.8,0,0,1-3.66,3.57,3.27,3.27,0,0,1-3.22-3.57,3.8,3.8,0,0,1,3.67-3.6A3.26,3.26,0,0,1,303.53,85.88Z" style="fill:#f0f0f0"></path><path d="M309.83,85.88a3.83,3.83,0,0,1-3.69,3.57A3.24,3.24,0,0,1,303,85.88a3.84,3.84,0,0,1,3.7-3.6A3.23,3.23,0,0,1,309.83,85.88Z" style="fill:#f0f0f0"></path><path d="M316.14,85.88a3.88,3.88,0,0,1-3.72,3.57,3.2,3.2,0,0,1-3.16-3.57,3.87,3.87,0,0,1,3.72-3.6A3.21,3.21,0,0,1,316.14,85.88Z" style="fill:#f0f0f0"></path><path d="M322.44,85.88a3.92,3.92,0,0,1-3.75,3.57,3.18,3.18,0,0,1-3.13-3.57,3.92,3.92,0,0,1,3.75-3.6A3.18,3.18,0,0,1,322.44,85.88Z" style="fill:#f0f0f0"></path><path d="M328.75,85.88A4,4,0,0,1,325,89.45a3.14,3.14,0,0,1-3.1-3.57,4,4,0,0,1,3.78-3.6A3.15,3.15,0,0,1,328.75,85.88Z" style="fill:#f0f0f0"></path><path d="M335.05,85.88a4,4,0,0,1-3.81,3.57,3.12,3.12,0,0,1-3.07-3.57,4,4,0,0,1,3.81-3.6A3.12,3.12,0,0,1,335.05,85.88Z" style="fill:#f0f0f0"></path></g><polygon points="160.82 79.74 339.19 79.74 339.18 84.62 160.83 84.62 160.82 79.74" style="fill:#FF6529"></polygon><polygon points="160.81 74.86 164.53 79.74 335.44 79.74 339.2 74.86 160.81 74.86" style="fill:#FF6529"></polygon><g style="opacity:0.4"><polygon points="160.81 74.86 164.53 79.74 335.44 79.74 339.2 74.86 160.81 74.86"></polygon></g><polygon points="160.79 69.96 339.21 69.96 339.2 74.86 160.81 74.86 160.79 69.96" style="fill:#FF6529"></polygon><g style="opacity:0.8"><polygon points="164.52 74.86 335.45 74.86 335.44 79.74 164.53 79.74 164.52 74.86" style="fill:#fff"></polygon></g><g style="opacity:0.7000000000000001"><rect x="164.26" y="175.81" width="171.24" height="2.15" style="fill:#fff"></rect></g><g style="opacity:0.8"><rect x="164.61" y="282.52" width="170.88" height="2.14" style="fill:#fff"></rect></g><rect x="199.75" y="98.79" width="21.17" height="22.87" style="fill:#FF6529"></rect><rect x="240.41" y="98.79" width="21.17" height="22.87" style="fill:#FF6529"></rect><rect x="281.07" y="98.79" width="21.17" height="22.87" style="fill:#FF6529"></rect><rect x="199.75" y="133.03" width="21.17" height="22.87" style="fill:#FF6529"></rect><rect x="240.41" y="133.03" width="21.17" height="22.87" style="fill:#FF6529"></rect><rect x="281.07" y="133.03" width="21.17" height="22.87" style="fill:#FF6529"></rect><rect x="199.75" y="298.99" width="21.17" height="22.87" style="fill:#FF6529"></rect><rect x="240.41" y="298.99" width="21.17" height="22.87" style="fill:#FF6529"></rect><rect x="281.07" y="298.99" width="21.17" height="22.87" style="fill:#FF6529"></rect><rect x="177.07" y="347.14" width="21.17" height="22.87" style="fill:#FF6529"></rect><rect x="301.45" y="347.14" width="21.17" height="22.87" style="fill:#FF6529"></rect><rect x="199.75" y="195.98" width="21.17" height="22.87" style="fill:#FF6529"></rect><rect x="240.41" y="195.98" width="21.17" height="22.87" style="fill:#FF6529"></rect><rect x="281.07" y="195.98" width="21.17" height="22.87" style="fill:#FF6529"></rect><rect x="199.75" y="230.22" width="21.17" height="22.87" style="fill:#FF6529"></rect><rect x="240.41" y="230.22" width="21.17" height="22.87" style="fill:#FF6529"></rect><rect x="281.07" y="230.22" width="21.17" height="22.87" style="fill:#FF6529"></rect><g style="opacity:0.8;isolation:isolate"><polygon points="225.35 349.82 247.26 349.82 247.17 372.57 225.2 372.57 225.35 349.82" style="fill:#fff"></polygon></g><g style="opacity:0.8;isolation:isolate"><polygon points="251.49 349.82 274.3 349.82 273.22 372.57 251.25 372.57 251.49 349.82" style="fill:#fff"></polygon></g><polygon points="277.79 377.15 219.98 377.15 219.75 372.57 278.01 372.57 277.79 377.15" style="fill:#FF6529"></polygon><g style="opacity:0.1"><polygon points="277.79 377.15 219.98 377.15 219.75 372.57 278.01 372.57 277.79 377.15" style="fill:#fff"></polygon></g><polygon points="280.12 381.99 217.94 381.99 217.69 377.48 280.35 377.48 280.12 381.99" style="fill:#FF6529"></polygon><g style="opacity:0.4"><polygon points="282.18 341.76 215.72 341.76 215.43 336.61 282.44 336.61 282.18 341.76" style="fill:#fff"></polygon></g><polygon points="215.72 341.76 225.35 349.82 274.3 349.82 282.18 341.76 215.72 341.76" style="fill:#263238"></polygon><path d="M220.22,345.53l3.4,27h2.7l-1.09-27h0a5.47,5.47,0,0,0-5,0Z" style="fill:#FF6529"></path><path d="M278.62,345.53l-3.33,27h-2.7l1-27h0a4.56,4.56,0,0,1,5,0Z" style="fill:#FF6529"></path><path d="M193.44,62.54c0-4.42,3.39-7.55,8-7.55a7.67,7.67,0,0,1,6.25,2.74l-2.61,2.36a4.34,4.34,0,0,0-3.43-1.7,4.15,4.15,0,0,0,0,8.3,4.31,4.31,0,0,0,3.43-1.7l2.61,2.37a7.7,7.7,0,0,1-6.25,2.74C196.83,70.1,193.44,67,193.44,62.54Z" style="fill:#263238"></path><path d="M208.44,62.54c0-4.35,3.43-7.55,8.08-7.55s8.07,3.2,8.07,7.55-3.42,7.56-8.07,7.56S208.44,66.9,208.44,62.54Zm12,0a3.93,3.93,0,1,0-3.92,4.15A3.89,3.89,0,0,0,220.44,62.54Z" style="fill:#263238"></path><path d="M239.86,69.81l0-7.7-3.74,6.27h-1.82l-3.72-6.06v7.49h-3.8V55.28h3.39l5.1,8.38,5-8.38h3.38l0,14.53Z" style="fill:#263238"></path><path d="M259.63,60.66c0,3.29-2.49,5.35-6.45,5.35h-2.54v3.8h-4.1V55.28h6.64C257.14,55.28,259.63,57.33,259.63,60.66Zm-4.15,0c0-1.35-.85-2.14-2.55-2.14h-2.29v4.25h2.29C254.63,62.77,255.48,62,255.48,60.66Z" style="fill:#263238"></path><path d="M270.63,67h-6.15l-1.14,2.83h-4.19l6.41-14.53h4.05L276,69.81h-4.27Zm-1.21-3-1.87-4.64L265.69,64Z" style="fill:#263238"></path><path d="M291,55.28V69.81h-3.38l-6.41-7.74v7.74h-4V55.28h3.38L287,63V55.28Z" style="fill:#263238"></path><path d="M301.7,64.6v5.21h-4.11V64.54l-5.54-9.26h4.34l3.45,5.77,3.44-5.77h4Z" style="fill:#263238"></path><polygon points="164.52 74.86 335.45 74.86 335.44 79.74 164.53 79.74 164.52 74.86" style="fill:#FF6529"></polygon></g><g id="freepik--Birds--inject-9"><path d="M380.85,83.45a13,13,0,0,1-2.09-.68c-1.26-.49-2.87-1.32-4.56-2.13a13.85,13.85,0,0,0-4.46-1.34c-1.19-.13-2,0-2.11-.31s.59-.89,2-1.16a9.19,9.19,0,0,1,5.43.93,16.77,16.77,0,0,1,4.23,3.14C380.27,82.83,380.85,83.45,380.85,83.45Z" style="fill:#FF6529"></path><path d="M388.19,77.54l-1.51.59c-.9.37-2,.89-3.3,1.44-2.53,1.12-4.69,2.28-5,1.77-.16-.23.17-.8.9-1.5a11.27,11.27,0,0,1,3.32-2.18,7.58,7.58,0,0,1,4-.56,6,6,0,0,1,1.21.29Z" style="fill:#FF6529"></path><path d="M367.23,87.86l-.41-.25c-.26-.17-.65-.39-1.12-.64a24,24,0,0,0-3.7-1.61c-2.94-1.06-5.57-.82-5.65-1.27,0-.2.6-.54,1.74-.7a9.91,9.91,0,0,1,4.42.49,8.81,8.81,0,0,1,3.68,2.48,6.76,6.76,0,0,1,.8,1.08Z" style="fill:#FF6529"></path><path d="M370.12,81.78l-1.06.61-2.35,1.31c-1.77,1-3.14,2.11-3.48,1.81-.15-.15,0-.62.45-1.23a7.25,7.25,0,0,1,2.28-2,6,6,0,0,1,2.92-.7A5,5,0,0,1,370.12,81.78Z" style="fill:#FF6529"></path><path d="M364.79,78.32s-1-.35-2.52-1-3.57-1.55-5.82-2.29a16,16,0,0,0-5.89-.82c-1.54.09-2.52.39-2.66.11s.67-1,2.39-1.55a11.75,11.75,0,0,1,6.81.28,17.11,17.11,0,0,1,5.72,3.39A24,24,0,0,1,364.79,78.32Z" style="fill:#FF6529"></path><path d="M371.55,69.73l-.56.16c-.37.09-.88.25-1.49.44A42.29,42.29,0,0,0,365,72.11c-3.42,1.53-5.62,3.8-6.09,3.44-.22-.17.06-1,.93-2.08a12.13,12.13,0,0,1,4.29-3.25,10.77,10.77,0,0,1,5.28-.92,8.41,8.41,0,0,1,1.6.27Z" style="fill:#FF6529"></path><path d="M139.93,108.71a14.36,14.36,0,0,1-2.09-.68c-1.26-.49-2.88-1.32-4.56-2.14a14.15,14.15,0,0,0-4.47-1.34c-1.19-.13-2,0-2.11-.31s.59-.89,2-1.15a9.1,9.1,0,0,1,5.43.93,16.35,16.35,0,0,1,4.23,3.13C139.35,108.08,139.93,108.71,139.93,108.71Z" style="fill:#FF6529"></path><path d="M147.27,102.8l-1.52.59c-.9.36-2,.88-3.3,1.44-2.53,1.11-4.68,2.27-5,1.77-.17-.24.17-.8.89-1.51a11.41,11.41,0,0,1,3.32-2.18,7.73,7.73,0,0,1,4-.56,6.38,6.38,0,0,1,1.2.29A4.06,4.06,0,0,1,147.27,102.8Z" style="fill:#FF6529"></path><path d="M126.31,113.11l-.42-.25c-.26-.17-.64-.39-1.11-.64a24.9,24.9,0,0,0-3.7-1.61c-2.94-1-5.58-.82-5.66-1.27,0-.2.61-.54,1.74-.7a9.84,9.84,0,0,1,4.43.5,8.77,8.77,0,0,1,3.68,2.47,6.59,6.59,0,0,1,.79,1.08Z" style="fill:#FF6529"></path><path d="M129.19,107l-1.05.61L125.79,109c-1.78,1-3.14,2.11-3.48,1.8-.16-.14,0-.61.45-1.23a7.12,7.12,0,0,1,2.28-1.94,5.94,5.94,0,0,1,2.91-.71A5,5,0,0,1,129.19,107Z" style="fill:#FF6529"></path></g></svg>